<svg version="1.1" id="Layer_1" xmlns="http://www.w3.org/2000/svg" xmlns:xlink="http://www.w3.org/1999/xlink" x="0px" y="0px"
	 width="100%" viewBox="0 0 1000 1000" enable-background="new 0 0 1000 1000" xml:space="preserve">
<path fill="#EAFF57" opacity="1.000000" stroke="none" 
	d="
M1.000006,895.000000 
	C1.000000,632.305298 1.000000,369.610596 1.314843,106.787781 
	C2.077981,106.012550 2.771465,105.423134 2.939233,104.710030 
	C9.687563,76.026421 24.041815,52.028042 46.558857,32.871765 
	C64.807503,17.346807 85.414268,6.980202 109.115669,2.925321 
	C109.832588,2.802669 110.375801,1.664636 111.000000,1.000000 
	C369.694702,1.000000 628.389404,1.000000 887.210266,1.325622 
	C888.161194,2.098629 888.942505,2.812180 889.816956,2.954704 
	C915.918152,7.209000 938.055969,19.416077 957.388184,36.987411 
	C967.242615,45.944244 974.988403,56.648911 981.731812,68.152046 
	C992.094055,85.828445 998.804260,104.869781 998.826233,125.233170 
	C999.094543,373.971252 999.018555,622.709717 998.915283,871.448059 
	C998.912170,878.951904 998.475037,886.643982 996.821167,893.925964 
	C989.749451,925.062866 974.159485,951.315674 949.072083,971.228088 
	C930.018372,986.351379 908.375305,996.219727 883.893127,999.080017 
	C883.196838,999.161438 882.628174,1000.335449 882.000000,1001.000000 
	C627.305298,1001.000000 372.610596,1001.000000 117.790924,1000.666870 
	C112.840340,999.223633 108.008247,998.140991 103.190224,996.998901 
	C73.013100,989.845703 48.090126,974.089111 28.736702,950.038391 
	C16.162691,934.412415 7.403594,916.617615 2.932713,896.885254 
	C2.765811,896.148621 1.665403,895.623596 1.000006,895.000000 
M313.756805,723.819763 
	C320.850525,740.341736 327.873444,756.895142 335.157379,773.332825 
	C335.820892,774.830200 338.401825,776.681702 339.658142,776.404053 
	C341.184540,776.066711 342.751068,773.841980 343.443451,772.094238 
	C399.547394,630.472595 455.567352,488.817719 511.597046,347.166687 
	C512.137451,345.800385 512.724182,344.452393 513.289246,343.095825 
	C513.628723,343.219574 513.968140,343.343323 514.307617,343.467041 
	C514.307617,344.620667 514.307617,345.774261 514.307556,346.927856 
	C514.305542,463.086121 514.371582,579.244507 514.201416,695.402527 
	C514.183411,707.693665 513.542847,720.088684 511.857056,732.250671 
	C508.416351,757.073853 494.409760,769.118103 469.438995,770.061523 
	C467.491364,770.135071 465.545380,770.252014 463.530457,770.352234 
	C463.530457,772.700928 463.530457,774.577026 463.530457,776.994629 
	C525.444397,772.453796 586.985657,772.648376 648.831299,776.984192 
	C648.831299,774.448059 648.831299,772.569641 648.831299,770.005493 
	C646.083191,770.005493 643.618896,770.114197 641.166565,769.988647 
	C617.008728,768.752197 603.646301,757.238708 599.581238,733.436890 
	C598.156860,725.096436 597.375671,716.541504 597.356201,708.082092 
	C597.174438,628.921631 597.220398,549.760742 597.218567,470.599945 
	C597.218567,469.328705 597.444946,468.057434 597.548157,466.970612 
	C598.227478,466.692383 598.531982,466.458435 598.836548,466.458405 
	C631.158020,466.454559 663.453979,466.182220 695.582642,471.114960 
	C734.702271,477.121033 764.099060,496.407806 782.229126,532.020081 
	C785.703796,538.845276 789.191345,545.668945 792.918396,552.356567 
	C793.710999,553.778870 795.573853,554.604553 797.922607,556.491699 
	C797.922607,493.632935 797.922607,432.558533 797.922607,371.484100 
	C797.545654,371.176697 797.168762,370.869263 796.791809,370.561829 
	C795.617859,371.657745 793.953369,372.540649 793.366760,373.891571 
	C791.914795,377.235382 791.069031,380.835907 789.780518,384.258301 
	C782.518555,403.546448 772.950684,421.277832 755.882996,433.871765 
	C737.170166,447.679504 715.410217,452.895660 692.954285,456.016205 
	C662.144958,460.297546 631.127991,459.879517 600.133606,459.824677 
	C599.214600,459.823029 598.296204,459.445801 597.452148,459.260071 
	C597.452148,383.684448 597.452148,308.405304 597.452148,232.774414 
	C599.122131,232.679077 600.573059,232.524719 602.024109,232.524033 
	C629.514404,232.510971 657.022217,231.909348 684.489807,232.699844 
	C708.600708,233.393738 732.807617,234.509094 756.722717,237.460007 
	C805.250671,243.447937 846.809570,264.279877 879.884033,300.616577 
	C892.869995,314.883392 904.543152,330.342102 916.955566,345.139313 
	C918.085266,346.485992 920.376709,347.873047 921.909119,347.660309 
	C925.341492,347.183899 924.141846,344.279572 923.734741,342.066559 
	C920.209900,322.904205 916.665039,303.745605 913.126221,284.585815 
	C909.472107,264.802032 905.818054,245.018173 902.184204,225.343811 
	C756.949768,225.343811 612.026794,225.343811 466.753693,225.343811 
	C466.882935,227.261536 466.989471,228.841766 467.107269,230.589783 
	C470.410553,231.090332 473.316559,231.667389 476.250946,231.953659 
	C499.064758,234.179199 510.015076,243.470078 512.473572,266.329865 
	C514.425293,284.477448 513.774231,302.909851 514.111145,321.218872 
	C514.145874,323.106018 513.162231,325.064087 512.437805,326.905273 
	C498.417267,362.537689 484.246887,398.111725 470.388611,433.807007 
	C466.051636,444.977814 458.135468,452.352203 447.587982,456.985962 
	C429.116058,465.101074 408.608978,459.054810 394.498505,441.877533 
	C385.768372,431.249969 380.613922,418.772461 376.246124,405.991852 
	C368.011230,381.895844 360.634308,357.497833 352.010284,333.545990 
	C342.966797,308.429016 332.170807,284.028900 315.486694,262.809814 
	C296.531281,238.701996 272.592682,224.116684 240.944336,225.167618 
	C233.806808,225.404648 226.712585,226.732422 219.577057,227.278610 
	C175.416733,230.658966 131.316650,228.926147 87.238396,225.584747 
	C83.981918,225.337860 80.711319,225.277466 77.234245,225.120773 
	C77.234245,227.365936 77.234245,228.996277 77.234245,230.747849 
	C90.194656,235.139114 99.919403,243.753387 106.987061,254.927429 
	C114.264366,266.432922 121.462166,278.202759 126.854050,290.653992 
	C189.243515,434.727448 251.283524,578.952209 313.756805,723.819763 
z"/>
<path fill="#020201" opacity="1.000000" stroke="none" 
	d="
M313.586548,723.478271 
	C251.283524,578.952209 189.243515,434.727448 126.854050,290.653992 
	C121.462166,278.202759 114.264366,266.432922 106.987061,254.927429 
	C99.919403,243.753387 90.194656,235.139114 77.234245,230.747849 
	C77.234245,228.996277 77.234245,227.365936 77.234245,225.120773 
	C80.711319,225.277466 83.981918,225.337860 87.238396,225.584747 
	C131.316650,228.926147 175.416733,230.658966 219.577057,227.278610 
	C226.712585,226.732422 233.806808,225.404648 240.944336,225.167618 
	C272.592682,224.116684 296.531281,238.701996 315.486694,262.809814 
	C332.170807,284.028900 342.966797,308.429016 352.010284,333.545990 
	C360.634308,357.497833 368.011230,381.895844 376.246124,405.991852 
	C380.613922,418.772461 385.768372,431.249969 394.498505,441.877533 
	C408.608978,459.054810 429.116058,465.101074 447.587982,456.985962 
	C458.135468,452.352203 466.051636,444.977814 470.388611,433.807007 
	C484.246887,398.111725 498.417267,362.537689 512.437805,326.905273 
	C513.162231,325.064087 514.145874,323.106018 514.111145,321.218872 
	C513.774231,302.909851 514.425293,284.477448 512.473572,266.329865 
	C510.015076,243.470078 499.064758,234.179199 476.250946,231.953659 
	C473.316559,231.667389 470.410553,231.090332 467.107269,230.589783 
	C466.989471,228.841766 466.882935,227.261536 466.753693,225.343811 
	C612.026794,225.343811 756.949768,225.343811 902.184204,225.343811 
	C905.818054,245.018173 909.472107,264.802032 913.126221,284.585815 
	C916.665039,303.745605 920.209900,322.904205 923.734741,342.066559 
	C924.141846,344.279572 925.341492,347.183899 921.909119,347.660309 
	C920.376709,347.873047 918.085266,346.485992 916.955566,345.139313 
	C904.543152,330.342102 892.869995,314.883392 879.884033,300.616577 
	C846.809570,264.279877 805.250671,243.447937 756.722717,237.460007 
	C732.807617,234.509094 708.600708,233.393738 684.489807,232.699844 
	C657.022217,231.909348 629.514404,232.510971 602.024109,232.524033 
	C600.573059,232.524719 599.122131,232.679077 597.452148,232.774414 
	C597.452148,308.405304 597.452148,383.684448 597.452148,459.260071 
	C598.296204,459.445801 599.214600,459.823029 600.133606,459.824677 
	C631.127991,459.879517 662.144958,460.297546 692.954285,456.016205 
	C715.410217,452.895660 737.170166,447.679504 755.882996,433.871765 
	C772.950684,421.277832 782.518555,403.546448 789.780518,384.258301 
	C791.069031,380.835907 791.914795,377.235382 793.366760,373.891571 
	C793.953369,372.540649 795.617859,371.657745 796.791809,370.561829 
	C797.168762,370.869263 797.545654,371.176697 797.922607,371.484100 
	C797.922607,432.558533 797.922607,493.632935 797.922607,556.491699 
	C795.573853,554.604553 793.710999,553.778870 792.918396,552.356567 
	C789.191345,545.668945 785.703796,538.845276 782.229126,532.020081 
	C764.099060,496.407806 734.702271,477.121033 695.582642,471.114960 
	C663.453979,466.182220 631.158020,466.454559 598.836548,466.458405 
	C598.531982,466.458435 598.227478,466.692383 597.548157,466.970612 
	C597.444946,468.057434 597.218567,469.328705 597.218567,470.599945 
	C597.220398,549.760742 597.174438,628.921631 597.356201,708.082092 
	C597.375671,716.541504 598.156860,725.096436 599.581238,733.436890 
	C603.646301,757.238708 617.008728,768.752197 641.166565,769.988647 
	C643.618896,770.114197 646.083191,770.005493 648.831299,770.005493 
	C648.831299,772.569641 648.831299,774.448059 648.831299,776.984192 
	C586.985657,772.648376 525.444397,772.453796 463.530457,776.994629 
	C463.530457,774.577026 463.530457,772.700928 463.530457,770.352234 
	C465.545380,770.252014 467.491364,770.135071 469.438995,770.061523 
	C494.409760,769.118103 508.416351,757.073853 511.857056,732.250671 
	C513.542847,720.088684 514.183411,707.693665 514.201416,695.402527 
	C514.371582,579.244507 514.305542,463.086121 514.307556,346.927856 
	C514.307617,345.774261 514.307617,344.620667 514.307617,343.467041 
	C513.968140,343.343323 513.628723,343.219574 513.289246,343.095825 
	C512.724182,344.452393 512.137451,345.800385 511.597046,347.166687 
	C455.567352,488.817719 399.547394,630.472595 343.443451,772.094238 
	C342.751068,773.841980 341.184540,776.066711 339.658142,776.404053 
	C338.401825,776.681702 335.820892,774.830200 335.157379,773.332825 
	C327.873444,756.895142 320.850525,740.341736 313.586548,723.478271 
M302.348511,487.101044 
	C327.604218,545.795898 352.859955,604.490723 378.635406,664.393433 
	C406.211273,594.932556 433.223419,526.891602 460.672119,457.751099 
	C433.984314,475.358887 399.391632,466.956543 383.169739,437.069153 
	C379.050385,429.479645 374.993225,421.724396 372.118469,413.615967 
	C363.390228,388.997528 355.614288,364.039856 346.788239,339.458160 
	C337.819397,314.478638 326.983459,290.317413 310.677094,269.062561 
	C298.238892,252.849670 283.272888,240.042175 263.015198,234.535034 
	C234.639404,226.820908 209.850464,249.318100 215.722687,278.053528 
	C217.706345,287.760437 220.977844,297.360199 224.864487,306.496887 
	C250.406952,366.541840 276.278656,426.446747 302.348511,487.101044 
z"/>
<path fill="#EAFF57" opacity="1.000000" stroke="none" 
	d="
M302.195709,486.749207 
	C276.278656,426.446747 250.406952,366.541840 224.864487,306.496887 
	C220.977844,297.360199 217.706345,287.760437 215.722687,278.053528 
	C209.850464,249.318100 234.639404,226.820908 263.015198,234.535034 
	C283.272888,240.042175 298.238892,252.849670 310.677094,269.062561 
	C326.983459,290.317413 337.819397,314.478638 346.788239,339.458160 
	C355.614288,364.039856 363.390228,388.997528 372.118469,413.615967 
	C374.993225,421.724396 379.050385,429.479645 383.169739,437.069153 
	C399.391632,466.956543 433.984314,475.358887 460.672119,457.751099 
	C433.223419,526.891602 406.211273,594.932556 378.635406,664.393433 
	C352.859955,604.490723 327.604218,545.795898 302.195709,486.749207 
z"/>
</svg>